<svg width="97" height="112" viewBox="0 0 97 112" fill="none" xmlns="http://www.w3.org/2000/svg">
<path d="M95.8773 81.629L77.4653 57.8065H84.4259C85.9229 57.8065 87.1952 57.2796 88.2431 56.2258C89.2909 55.172 89.8148 53.8925 89.8148 52.3871C89.8148 51.7849 89.7213 51.2016 89.5341 50.6371C89.347 50.0726 89.0664 49.5645 88.6921 49.1129L52.7662 2.14516C52.2423 1.46774 51.6248 0.940863 50.9138 0.564519C50.2027 0.18817 49.3982 0 48.5 0C47.6018 0 46.7973 0.18817 46.0862 0.564519C45.3752 0.940863 44.7577 1.46774 44.2338 2.14516L8.30787 49.1129C7.93364 49.5645 7.65297 50.0726 7.46586 50.6371C7.27874 51.2016 7.18519 51.7849 7.18519 52.3871C7.18519 53.8925 7.7091 55.172 8.75694 56.2258C9.80479 57.2796 11.0772 57.8065 12.5741 57.8065H19.5347L1.12269 81.629C0.748457 82.0807 0.467784 82.5887 0.280672 83.1532C0.0935559 83.7178 0 84.3011 0 84.9032C0 86.4086 0.523915 87.6882 1.57176 88.7419C2.6196 89.7957 3.89197 90.3226 5.38889 90.3226H43.1111V106.581C43.1111 108.086 43.635 109.366 44.6829 110.419C45.7307 111.473 47.0031 112 48.5 112C49.9969 112 51.2693 111.473 52.3171 110.419C53.365 109.366 53.8889 108.086 53.8889 106.581V90.3226H91.6111C93.108 90.3226 94.3804 89.7957 95.4282 88.7419C96.4761 87.6882 97 86.4086 97 84.9032C97 84.3011 96.9064 83.7178 96.7193 83.1532C96.5322 82.5887 96.2515 82.043 95.8773 81.5161V81.629ZM16.3912 79.4839L34.8032 55.6613C35.1775 55.2097 35.4581 54.7016 35.6453 54.1371C35.8324 53.5726 35.9259 52.9893 35.9259 52.3871C35.9259 50.8817 35.402 49.6022 34.3542 48.5484C33.3063 47.4946 32.034 46.9677 30.537 46.9677H23.4641L48.5 14.3387L73.5359 46.9677H66.463C64.966 46.9677 63.6937 47.4946 62.6458 48.5484C61.598 49.6022 61.0741 50.8817 61.0741 52.3871C61.0741 52.9893 61.1676 53.5726 61.3547 54.1371C61.5419 54.7016 61.8225 55.2473 62.1968 55.7742V55.6613L80.6088 79.4839H16.3912Z" fill="#086E0A"/>
</svg>
