<svg width="13" height="13" viewBox="0 0 13 13" fill="none" xmlns="http://www.w3.org/2000/svg">
<g clip-path="url(#clip0_2_318)">
<path d="M6.5 1.21875C7.46485 1.21875 8.34505 1.45573 9.14062 1.92969C9.9362 2.38672 10.5794 3.02994 11.0703 3.85938C11.5443 4.68881 11.7812 5.56901 11.7812 6.5C11.7812 7.43099 11.5443 8.31119 11.0703 9.14062C10.5794 9.97006 9.9362 10.6133 9.14062 11.0703C8.34505 11.5443 7.46485 11.7812 6.5 11.7812C5.53515 11.7812 4.65495 11.5443 3.85938 11.0703C3.0638 10.6133 2.42058 9.97006 1.92969 9.14062C1.45573 8.31119 1.21875 7.43099 1.21875 6.5C1.21875 5.56901 1.45573 4.68881 1.92969 3.85938C2.42058 3.02994 3.0638 2.38672 3.85938 1.92969C4.65495 1.45573 5.53515 1.21875 6.5 1.21875ZM6.5 13C7.6849 12.9831 8.76822 12.6953 9.75 12.1367C10.7318 11.5612 11.5273 10.7656 12.1367 9.75C12.7122 8.71744 13 7.63412 13 6.5C13 5.36588 12.7122 4.28256 12.1367 3.25C11.5273 2.23437 10.7318 1.4388 9.75 0.863281C8.76822 0.304685 7.6849 0.0169271 6.5 0C5.3151 0.0169271 4.23178 0.304685 3.25 0.863281C2.26822 1.4388 1.47266 2.23437 0.863281 3.25C0.287758 4.28256 0 5.36588 0 6.5C0 7.63412 0.287758 8.71744 0.863281 9.75C1.47266 10.7656 2.26822 11.5612 3.25 12.1367C4.23178 12.6953 5.3151 12.9831 6.5 13ZM5.05273 7.94727C4.66341 7.52409 4.46875 7.04167 4.46875 6.5C4.46875 5.95833 4.66341 5.48438 5.05273 5.07812C5.47591 4.67187 5.95833 4.46875 6.5 4.46875C7.04167 4.46875 7.52409 4.67187 7.94727 5.07812C8.23503 5.31511 8.51432 5.31511 8.78516 5.07812C9.02214 4.77344 9.02214 4.48568 8.78516 4.21484C8.125 3.57161 7.36329 3.25 6.5 3.25C5.63671 3.25 4.86654 3.57161 4.18945 4.21484C3.56315 4.875 3.25 5.63671 3.25 6.5C3.25 7.36329 3.56315 8.13346 4.18945 8.81055C4.86654 9.43685 5.63671 9.75 6.5 9.75C7.36329 9.75 8.125 9.43685 8.78516 8.81055C9.02214 8.52279 9.02214 8.23503 8.78516 7.94727C8.49739 7.71029 8.2181 7.71029 7.94727 7.94727C7.52409 8.33659 7.04167 8.53125 6.5 8.53125C5.95833 8.53125 5.47591 8.33659 5.05273 7.94727Z" fill="#A8DFC2"/>
</g>
<defs>
<clipPath id="clip0_2_318">
<rect width="13" height="13" fill="white"/>
</clipPath>
</defs>
</svg>
