<svg width="106" height="112" viewBox="0 0 106 112" fill="none" xmlns="http://www.w3.org/2000/svg">
<path d="M105.189 0L98.3428 2.24794C94.5688 3.57026 90.5316 4.6281 86.2309 5.42149C81.9304 6.21488 77.4982 6.61157 72.9343 6.61157C71.0034 6.61157 69.1384 6.54545 67.3391 6.41322C65.5399 6.28099 63.7626 6.08264 62.0073 5.81818H62.4023C60.8224 5.55372 59.1768 5.35537 57.4654 5.22314C55.7539 5.09091 53.9766 5.02479 52.1335 5.02479C47.2186 5.02479 42.4353 5.55371 37.7836 6.61157C33.132 7.66943 28.6998 9.16803 24.487 11.1074L24.8819 10.9752C18.6504 13.6198 13.3845 17.6088 9.08387 22.9421C4.78328 28.2755 2.01864 34.3361 0.789902 41.124V41.3884C0.526601 42.7108 0.329127 44.1432 0.197474 45.686C0.0658266 47.2287 0 48.7493 0 50.2479C0 55.6254 0.789896 60.7383 2.36971 65.5868C3.94952 70.4353 6.18755 74.843 9.08387 78.8099V78.6777C8.90834 79.2948 8.73281 79.8898 8.55727 80.4628C8.38173 81.0358 8.20621 81.6309 8.03067 82.2479C6.97746 86.6557 6.16563 91.3278 5.59514 96.2645C5.02465 101.201 4.73941 106.27 4.73941 111.471C4.73941 111.559 4.73941 111.647 4.73941 111.736C4.73941 111.824 4.73941 111.912 4.73941 112H15.9297C16.193 107.416 16.6318 103.03 17.2462 98.843C17.8606 94.6556 18.6066 90.5345 19.4842 86.4793L19.2209 87.5372C22.8194 89.5648 26.7031 91.1295 30.872 92.2314C35.0409 93.3333 39.4073 93.8843 43.9712 93.8843C44.059 93.8843 44.1687 93.8843 44.3003 93.8843C44.432 93.8843 44.5417 93.8843 44.6295 93.8843C48.9301 93.8843 53.1428 93.4435 57.2679 92.562C61.3929 91.6804 65.3424 90.4022 69.1164 88.7273L68.7215 88.9917C79.3413 84.4077 87.2841 77.664 92.5502 68.7603C97.7284 59.9449 101.305 51.0634 103.28 42.1157C105.254 33.168 106.154 25.2562 105.979 18.3802C105.891 11.5041 105.847 7.7135 105.847 7.00827L105.189 0ZM64.2454 78.5455C60.6469 80.1322 56.873 81.2342 52.9234 81.8512C48.9739 82.5565 45.1561 82.7989 41.4698 82.5785C37.7836 82.3581 34.273 81.6749 30.9378 80.5289C27.6027 79.4711 24.7064 77.9725 22.2489 76.0331C23.2143 72.9476 24.2675 70.0606 25.4085 67.3719C26.5495 64.6832 27.8221 62.1047 29.2264 59.6364L29.0947 60.0331C30.2357 58.0937 31.4644 56.2865 32.7809 54.6116C34.0974 52.9366 35.4578 51.3499 36.8621 49.8512C38.3541 48.3526 39.9339 46.9422 41.6015 45.6198C43.2691 44.2975 45.0244 43.1074 46.8675 42.0496L46.9992 41.9174C50.5976 39.7135 54.4813 37.8402 58.6502 36.2975C62.8192 34.7548 67.1855 33.6749 71.7494 33.0578L72.1444 32.9256V27.3719C71.7933 27.3719 71.4203 27.3499 71.0253 27.3058C70.6304 27.2617 70.2574 27.2397 69.9063 27.2397C64.9036 27.2397 60.0765 27.7906 55.4248 28.8926C50.7731 29.9945 46.3409 31.5592 42.1281 33.5868L42.523 33.4545C37.7836 35.8347 33.4611 38.7438 29.5555 42.1818C25.6499 45.6199 22.2928 49.4986 19.4842 53.8182L19.3526 53.9504C18.4749 55.449 17.5753 57.0578 16.6538 58.7769C15.7322 60.4959 14.8326 62.2369 13.9549 64L13.8233 64.5289C12.9456 62.4132 12.2654 60.1433 11.7827 57.719C11.3 55.2948 11.0586 52.8044 11.0586 50.2479C11.0586 49.0138 11.1245 47.8237 11.2561 46.6777C11.3878 45.5317 11.5413 44.3857 11.7169 43.2397V43.5041C12.5068 38.3912 14.4596 33.8513 17.5753 29.8843C20.6911 25.9173 24.5308 22.9642 29.0947 21.0248L29.358 20.8926C32.4299 19.3939 35.765 18.2479 39.3634 17.4545C42.9619 16.6612 46.692 16.2645 50.5537 16.2645C50.5537 16.2645 50.5757 16.2645 50.6195 16.2645C50.6634 16.2645 50.7293 16.2645 50.817 16.2645C52.4846 16.2645 54.196 16.3306 55.9514 16.4628C57.7067 16.595 59.4621 16.7052 61.2174 16.7934C62.9727 17.0579 64.8378 17.2562 66.8125 17.3884C68.7873 17.5207 70.8279 17.5868 72.9343 17.5868C76.796 17.5868 80.6358 17.3444 84.4537 16.8595C88.2716 16.3747 91.9797 15.6474 95.5781 14.6777L94.9199 14.8099C94.8321 18.7769 94.481 23.7575 93.8667 29.7521C93.2523 35.7466 91.8919 41.8732 89.7855 48.1322C87.6791 54.3912 84.6073 60.2975 80.57 65.8512C76.6205 71.405 71.179 75.6363 64.2454 78.5455Z" fill="#086E0A"/>
</svg>
