<svg width="105" height="89" viewBox="0 0 105 89" fill="none" xmlns="http://www.w3.org/2000/svg">
<path d="M100.601 35.6348H4.39944C2.34636 35.6348 1.09987 36.5039 0.659918 38.2422C0.219971 39.9805 0 42.0664 0 44.5C0 46.9336 0.219971 49.0195 0.659918 50.7578C1.09987 52.4961 2.34636 53.3652 4.39944 53.3652H100.601C102.654 53.3652 103.9 52.4961 104.34 50.7578C104.78 49.0195 105 46.9336 105 44.5C105 42.0664 104.78 39.9805 104.34 38.2422C103.9 36.5039 102.654 35.6348 100.601 35.6348ZM100.601 71.2695H4.39944C2.34636 71.2695 1.09987 72.1387 0.659918 73.877C0.219971 75.6152 0 77.7012 0 80.1348C0 82.5684 0.219971 84.6543 0.659918 86.3926C1.09987 88.1309 2.34636 89 4.39944 89H100.601C102.654 89 103.9 88.1309 104.34 86.3926C104.78 84.6543 105 82.5684 105 80.1348C105 77.7012 104.78 75.6152 104.34 73.877C103.9 72.1387 102.654 71.2695 100.601 71.2695ZM4.39944 17.9043H100.601C102.654 17.9043 103.9 17.0352 104.34 15.2969C104.78 13.5586 105 11.4147 105 8.86523C105 6.43163 104.78 4.34571 104.34 2.60742C103.9 0.869129 102.654 0 100.601 0H4.39944C2.34636 0 1.09987 0.869129 0.659918 2.60742C0.219971 4.34571 0 6.43163 0 8.86523C0 11.4147 0.219971 13.5586 0.659918 15.2969C1.09987 17.0352 2.34636 17.9043 4.39944 17.9043Z" fill="#A8DFC2"/>
</svg>
