<svg width="112" height="112" viewBox="0 0 112 112" fill="none" xmlns="http://www.w3.org/2000/svg">
<path d="M23.744 24.976C19.7866 29.0827 16.7253 33.7493 14.56 38.976C12.32 44.4267 11.2 50.1013 11.2 56C11.2 64.1387 13.2533 71.68 17.36 78.624C21.3174 85.344 26.656 90.6826 33.376 94.64C40.32 98.7467 47.8613 100.8 56 100.8C61.9734 100.8 67.6853 99.68 73.136 97.44C73.36 95.5733 73.2853 93.5947 72.912 91.504C72.6133 90.2347 72.24 89.0027 71.792 87.808C70.448 84.672 66.2294 79.3707 59.136 71.904C58.24 70.9333 57.7173 69.888 57.568 68.768C57.4933 67.9467 57.6427 66.304 58.016 63.84L58.128 63.28C58.2773 62.0853 58.576 61.1893 59.024 60.592C59.6213 59.7707 60.704 59.0613 62.272 58.464C63.9147 57.792 66.416 57.1947 69.776 56.672C71.4933 56.448 72.856 56.4667 73.864 56.728C74.872 56.9893 75.7493 57.5307 76.496 58.352C76.944 58.8 77.5787 59.6587 78.4 60.928L79.072 61.824C79.8933 63.0933 80.752 64.0267 81.648 64.624C82.1707 65.072 83.0667 65.5573 84.336 66.08C85.68 66.752 86.912 67.4053 88.032 68.04C89.152 68.6747 89.9733 69.384 90.496 70.168C91.0187 70.952 91.3547 71.9787 91.504 73.248C91.5787 73.9947 91.616 75.4133 91.616 77.504V78.176C91.616 80.192 91.4293 82.096 91.056 83.888C94.192 80.0053 96.5813 75.712 98.224 71.008C99.9413 66.2293 100.8 61.2267 100.8 56C100.8 49.952 99.6427 44.1654 97.328 38.64C95.088 33.264 91.9147 28.5227 87.808 24.416C83.7013 20.3093 78.9974 17.0987 73.696 14.784C68.8426 18.0694 65.8933 20.4213 64.848 21.84C64.6987 22.064 64.4747 22.5493 64.176 23.296C63.5787 24.7893 63.0187 25.872 62.496 26.544C61.6747 27.8133 60.6667 28.5227 59.472 28.672C58.8747 28.7467 57.7547 28.7467 56.112 28.672C53.5733 28.448 51.6693 28.4853 50.4 28.784C48.3093 29.232 46.928 30.3893 46.256 32.256C45.9573 33.2267 45.7707 34.496 45.696 36.064C45.6213 37.856 45.7707 39.536 46.144 41.104C46.592 42.9707 47.3013 44.5013 48.272 45.696C48.7947 46.2933 48.8693 47.264 48.496 48.608C48.3467 49.28 48.0853 49.9147 47.712 50.512C47.4133 50.8853 47.152 51.184 46.928 51.408C46.5547 51.184 45.752 50.3627 44.52 48.944C43.288 47.5253 42.2987 46.48 41.552 45.808C40.2827 44.688 39.0133 43.9413 37.744 43.568C37.1467 43.4187 36.1013 43.1947 34.608 42.896L34.496 42.784C32.4053 42.336 30.912 41.9627 30.016 41.664C28.448 41.1413 27.4773 40.5067 27.104 39.76C26.88 39.1627 26.7307 38.416 26.656 37.52C26.5813 36.9973 26.544 36.1013 26.544 34.832C26.544 33.264 26.5067 32.0693 26.432 31.248C26.2827 29.7547 25.9467 28.448 25.424 27.328C24.976 26.432 24.416 25.648 23.744 24.976ZM56 112C48.384 112 41.104 110.544 34.16 107.632C27.5146 104.795 21.5974 100.781 16.408 95.592C11.2186 90.4026 7.20535 84.4854 4.368 77.84C1.45598 70.896 0 63.616 0 56C0 48.384 1.45598 41.104 4.368 34.16C7.20535 27.5146 11.2186 21.5974 16.408 16.408C21.5974 11.2186 27.5146 7.20535 34.16 4.368C41.104 1.45598 48.384 0 56 0C63.616 0 70.896 1.45598 77.84 4.368C84.4854 7.20535 90.4026 11.2186 95.592 16.408C100.781 21.5974 104.795 27.5146 107.632 34.16C110.544 41.104 112 48.384 112 56C112 63.616 110.544 70.896 107.632 77.84C104.795 84.4854 100.781 90.4026 95.592 95.592C90.4026 100.781 84.4854 104.795 77.84 107.632C70.896 110.544 63.616 112 56 112Z" fill="#A8DFC2"/>
</svg>
